<?xml version="1.0" standalone="no"?><svg xmlns="http://www.w3.org/2000/svg" viewBox="0 0 1440 320"><path fill="#2699fb" fill-opacity="1" d="M0,320L21.8,272C43.6,224,87,128,131,106.7C174.5,85,218,139,262,154.7C305.5,171,349,149,393,160C436.4,171,480,213,524,202.7C567.3,192,611,128,655,90.7C698.2,53,742,43,785,48C829.1,53,873,75,916,101.3C960,128,1004,160,1047,160C1090.9,160,1135,128,1178,122.7C1221.8,117,1265,139,1309,170.7C1352.7,203,1396,245,1418,266.7L1440,288L1440,0L1418.2,0C1396.4,0,1353,0,1309,0C1265.5,0,1222,0,1178,0C1134.5,0,1091,0,1047,0C1003.6,0,960,0,916,0C872.7,0,829,0,785,0C741.8,0,698,0,655,0C610.9,0,567,0,524,0C480,0,436,0,393,0C349.1,0,305,0,262,0C218.2,0,175,0,131,0C87.3,0,44,0,22,0L0,0Z"></path></svg>